HIERARCHY
ROOT Hips
{
	OFFSET -2.439626 86.173584 3.652770
	CHANNELS 6 Xposition Yposition Zposition Zrotation Yrotation Xrotation 
	JOINT Spine
	{
		OFFSET 0.000000 8.814246 -2.080107
		CHANNELS 3 Zrotation Yrotation Xrotation
		JOINT Spine1
		{
			OFFSET -0.000000 8.844141 0.000000
			CHANNELS 3 Zrotation Yrotation Xrotation
			JOINT Spine2
			{
				OFFSET -0.000000 11.682268 -0.000000
				CHANNELS 3 Zrotation Yrotation Xrotation
				JOINT Spine3
				{
					OFFSET -0.000000 11.746700 0.000000
					CHANNELS 3 Zrotation Yrotation Xrotation
					JOINT Neck
					{
						OFFSET -0.000000 17.658264 -0.000000
						CHANNELS 3 Zrotation Yrotation Xrotation
						JOINT Neck1
						{
							OFFSET -0.000000 5.101515 0.000000
							CHANNELS 3 Zrotation Yrotation Xrotation
							JOINT Head
							{
								OFFSET -0.000000 5.101515 -0.000000
								CHANNELS 3 Zrotation Yrotation Xrotation
								JOINT HeadEnd
								{
									OFFSET -0.000000 11.655085 0.000000
									CHANNELS 3 Zrotation Yrotation Xrotation
									End Site
									{
										OFFSET 0.000000 0.000000 0.000000
									}
								}
							}
						}
					}
					JOINT RightShoulder
					{
						OFFSET -2.625389 11.175210 -0.000000
						CHANNELS 3 Zrotation Yrotation Xrotation
						JOINT RightArm
						{
							OFFSET 0.000000 10.434715 -0.000000
							CHANNELS 3 Zrotation Yrotation Xrotation
							JOINT RightForeArm
							{
								OFFSET -0.000000 29.628420 -0.000000
								CHANNELS 3 Zrotation Yrotation Xrotation
								JOINT RightHand
								{
									OFFSET -0.000000 22.857611 0.000000
									CHANNELS 3 Zrotation Yrotation Xrotation
									JOINT RightHandThumb1
									{
										OFFSET -2.867323 3.959563 2.944291
										CHANNELS 3 Zrotation Yrotation Xrotation
										JOINT RightHandThumb2
										{
											OFFSET -0.000000 3.350399 0.000000
											CHANNELS 3 Zrotation Yrotation Xrotation
											JOINT RightHandThumb3
											{
												OFFSET 0.000000 3.756509 0.000000
												CHANNELS 3 Zrotation Yrotation Xrotation
												JOINT RightHandThumb4
												{
													OFFSET -0.000000 3.147345 -0.000000
													CHANNELS 3 Zrotation Yrotation Xrotation
													End Site
													{
														OFFSET 0.000000 0.000000 0.000000
													}
												}
											}
										}
									}
									JOINT RightHandIndex1
									{
										OFFSET -0.086752 10.030893 2.345280
										CHANNELS 3 Zrotation Yrotation Xrotation
										JOINT RightHandIndex2
										{
											OFFSET -0.000000 4.061090 -0.000000
											CHANNELS 3 Zrotation Yrotation Xrotation
											JOINT RightHandIndex3
											{
												OFFSET -0.000000 3.248873 -0.000000
												CHANNELS 3 Zrotation Yrotation Xrotation
												JOINT RightHandIndex4
												{
													OFFSET -0.000000 2.639709 -0.000000
													CHANNELS 3 Zrotation Yrotation Xrotation
													End Site
													{
														OFFSET 0.000000 0.000000 0.000000
													}
												}
											}
										}
									}
									JOINT RightHandMiddle1
									{
										OFFSET 0.104102 9.502952 0.006768
										CHANNELS 3 Zrotation Yrotation Xrotation
										JOINT RightHandMiddle2
										{
											OFFSET -0.000000 4.568727 -0.000000
											CHANNELS 3 Zrotation Yrotation Xrotation
											JOINT RightHandMiddle3
											{
												OFFSET -0.000000 3.654981 0.000000
												CHANNELS 3 Zrotation Yrotation Xrotation
												JOINT RightHandMiddle4
												{
													OFFSET 0.000000 2.741236 0.000000
													CHANNELS 3 Zrotation Yrotation Xrotation
													End Site
													{
														OFFSET 0.000000 0.000000 0.000000
													}
												}
											}
										}
									}
									JOINT RightHandRing1
									{
										OFFSET 0.086752 8.921708 -2.267442
										CHANNELS 3 Zrotation Yrotation Xrotation
										JOINT RightHandRing2
										{
											OFFSET -0.000000 4.061090 -0.000000
											CHANNELS 3 Zrotation Yrotation Xrotation
											JOINT RightHandRing3
											{
												OFFSET 0.000000 3.654981 0.000000
												CHANNELS 3 Zrotation Yrotation Xrotation
												JOINT RightHandRing4
												{
													OFFSET 0.000000 2.741236 0.000000
													CHANNELS 3 Zrotation Yrotation Xrotation
													End Site
													{
														OFFSET 0.000000 0.000000 0.000000
													}
												}
											}
										}
									}
									JOINT RightHandPinky1
									{
										OFFSET -0.173504 7.976997 -4.467199
										CHANNELS 3 Zrotation Yrotation Xrotation
										JOINT RightHandPinky2
										{
											OFFSET -0.000000 3.350399 -0.000000
											CHANNELS 3 Zrotation Yrotation Xrotation
											JOINT RightHandPinky3
											{
												OFFSET -0.000000 2.842763 -0.000000
												CHANNELS 3 Zrotation Yrotation Xrotation
												JOINT RightHandPinky4
												{
													OFFSET 0.000000 2.639709 -0.000000
													CHANNELS 3 Zrotation Yrotation Xrotation
													End Site
													{
														OFFSET 0.000000 0.000000 0.000000
													}
												}
											}
										}
									}
									JOINT RightForeArmEnd
									{
										OFFSET 0.000000 0.000000 0.000000
										CHANNELS 3 Zrotation Yrotation Xrotation
										End Site
										{
											OFFSET 0.000000 0.000000 0.000000
										}
									}
								}
								JOINT RightArmEnd
								{
									OFFSET 0.000000 0.000000 0.000000
									CHANNELS 3 Zrotation Yrotation Xrotation
									End Site
									{
										OFFSET 0.000000 0.000000 0.000000
									}
								}
							}
						}
					}
					JOINT LeftShoulder
					{
						OFFSET 2.625389 11.175210 0.000000
						CHANNELS 3 Zrotation Yrotation Xrotation
						JOINT LeftArm
						{
							OFFSET 0.000000 10.813635 0.000000
							CHANNELS 3 Zrotation Yrotation Xrotation
							JOINT LeftForeArm
							{
								OFFSET 0.000000 28.724781 -0.000000
								CHANNELS 3 Zrotation Yrotation Xrotation
								JOINT LeftHand
								{
									OFFSET 0.644384 25.716167 -0.328871
									CHANNELS 3 Zrotation Yrotation Xrotation
									JOINT LeftHandThumb1
									{
										OFFSET 2.867323 3.959563 2.944291
										CHANNELS 3 Zrotation Yrotation Xrotation
										JOINT LeftHandThumb2
										{
											OFFSET -0.000000 3.350399 0.000000
											CHANNELS 3 Zrotation Yrotation Xrotation
											JOINT LeftHandThumb3
											{
												OFFSET -0.000000 3.756509 0.000000
												CHANNELS 3 Zrotation Yrotation Xrotation
												JOINT LeftHandThumb4
												{
													OFFSET -0.000000 3.100000 0.000000
													CHANNELS 3 Zrotation Yrotation Xrotation
													End Site
													{
														OFFSET 0.000000 0.000000 0.000000
													}
												}
											}
										}
									}
									JOINT LeftHandIndex1
									{
										OFFSET 0.086752 10.030893 2.345280
										CHANNELS 3 Zrotation Yrotation Xrotation
										JOINT LeftHandIndex2
										{
											OFFSET -0.000000 4.061090 0.000000
											CHANNELS 3 Zrotation Yrotation Xrotation
											JOINT LeftHandIndex3
											{
												OFFSET -0.000000 3.248873 0.000000
												CHANNELS 3 Zrotation Yrotation Xrotation
												JOINT LeftHandIndex4
												{
													OFFSET -0.000000 2.639709 0.000000
													CHANNELS 3 Zrotation Yrotation Xrotation
													End Site
													{
														OFFSET 0.000000 0.000000 0.000000
													}
												}
											}
										}
									}
									JOINT LeftHandMiddle1
									{
										OFFSET -0.104102 9.502952 0.006768
										CHANNELS 3 Zrotation Yrotation Xrotation
										JOINT LeftHandMiddle2
										{
											OFFSET -0.000000 4.568727 0.000000
											CHANNELS 3 Zrotation Yrotation Xrotation
											JOINT LeftHandMiddle3
											{
												OFFSET 0.000000 3.654981 0.000000
												CHANNELS 3 Zrotation Yrotation Xrotation
												JOINT LeftHandMiddle4
												{
													OFFSET -0.000000 2.741236 0.000000
													CHANNELS 3 Zrotation Yrotation Xrotation
													End Site
													{
														OFFSET 0.000000 0.000000 0.000000
													}
												}
											}
										}
									}
									JOINT LeftHandRing1
									{
										OFFSET -0.086752 8.921708 -2.267442
										CHANNELS 3 Zrotation Yrotation Xrotation
										JOINT LeftHandRing2
										{
											OFFSET 0.000000 4.061090 -0.000000
											CHANNELS 3 Zrotation Yrotation Xrotation
											JOINT LeftHandRing3
											{
												OFFSET 0.000000 3.654981 -0.000000
												CHANNELS 3 Zrotation Yrotation Xrotation
												JOINT LeftHandRing4
												{
													OFFSET 0.000000 2.741236 -0.000000
													CHANNELS 3 Zrotation Yrotation Xrotation
													End Site
													{
														OFFSET 0.000000 0.000000 0.000000
													}
												}
											}
										}
									}
									JOINT LeftHandPinky1
									{
										OFFSET 0.173504 7.976997 -4.467199
										CHANNELS 3 Zrotation Yrotation Xrotation
										JOINT LeftHandPinky2
										{
											OFFSET -0.000000 3.350399 0.000000
											CHANNELS 3 Zrotation Yrotation Xrotation
											JOINT LeftHandPinky3
											{
												OFFSET 0.000000 2.842763 -0.000000
												CHANNELS 3 Zrotation Yrotation Xrotation
												JOINT LeftHandPinky4
												{
													OFFSET -0.000000 2.639709 0.000000
													CHANNELS 3 Zrotation Yrotation Xrotation
													End Site
													{
														OFFSET 0.000000 0.000000 0.000000
													}
												}
											}
										}
									}
									JOINT LeftForeArmEnd
									{
										OFFSET 0.000000 0.000000 0.000000
										CHANNELS 3 Zrotation Yrotation Xrotation
										End Site
										{
											OFFSET 0.000000 0.000000 0.000000
										}
									}
								}
								JOINT LeftArmEnd
								{
									OFFSET 0.000000 0.000000 0.000000
									CHANNELS 3 Zrotation Yrotation Xrotation
									End Site
									{
										OFFSET 0.000000 0.000000 0.000000
									}
								}
							}
						}
					}
				}
			}
		}
	}
	JOINT RightUpLeg
	{
		OFFSET -11.289943 0.000000 0.000000
		CHANNELS 3 Zrotation Yrotation Xrotation
		JOINT RightLeg
		{
			OFFSET -0.000000 -38.200325 0.000000
			CHANNELS 3 Zrotation Yrotation Xrotation
			JOINT RightFoot
			{
				OFFSET -0.000000 -39.900856 -0.000000
				CHANNELS 3 Zrotation Yrotation Xrotation
				JOINT RightToeBase
				{
					OFFSET 0.000000 -0.000000 15.261641
					CHANNELS 3 Zrotation Yrotation Xrotation
					JOINT RightToeBaseEnd
					{
						OFFSET -0.000000 -0.000000 7.370709
						CHANNELS 3 Zrotation Yrotation Xrotation
						End Site
						{
							OFFSET 0.000000 0.000000 0.000000
						}
					}
				}
				JOINT RightLegEnd
				{
					OFFSET 0.000000 0.000000 0.000000
					CHANNELS 3 Zrotation Yrotation Xrotation
					End Site
					{
						OFFSET 0.000000 0.000000 0.000000
					}
				}
			}
			JOINT RightUpLegEnd
			{
				OFFSET 0.000000 0.000000 0.000000
				CHANNELS 3 Zrotation Yrotation Xrotation
				End Site
				{
					OFFSET 0.000000 0.000000 0.000000
				}
			}
		}
	}
	JOINT LeftUpLeg
	{
		OFFSET 11.315661 0.000000 -0.000000
		CHANNELS 3 Zrotation Yrotation Xrotation
		JOINT LeftLeg
		{
			OFFSET 0.000000 -38.200325 0.000000
			CHANNELS 3 Zrotation Yrotation Xrotation
			JOINT LeftFoot
			{
				OFFSET -0.000000 -39.900856 -0.000000
				CHANNELS 3 Zrotation Yrotation Xrotation
				JOINT LeftToeBase
				{
					OFFSET 0.000000 0.000000 15.261641
					CHANNELS 3 Zrotation Yrotation Xrotation
					JOINT LeftToeBaseEnd
					{
						OFFSET -0.000000 0.000000 7.539996
						CHANNELS 3 Zrotation Yrotation Xrotation
						End Site
						{
							OFFSET 0.000000 0.000000 0.000000
						}
					}
				}
				JOINT LeftLegEnd
				{
					OFFSET 0.000000 0.000000 0.000000
					CHANNELS 3 Zrotation Yrotation Xrotation
					End Site
					{
						OFFSET 0.000000 0.000000 0.000000
					}
				}
			}
			JOINT LeftUpLegEnd
			{
				OFFSET 0.000000 0.000000 0.000000
				CHANNELS 3 Zrotation Yrotation Xrotation
				End Site
				{
					OFFSET 0.000000 0.000000 0.000000
				}
			}
		}
	}
}
MOTION
Frames: 5
Frame Time: 0.016667
-3.542623 86.149994 8.807278 -4.611780 -23.778154 -16.265165 2.214083 -0.249839 8.222445 -5.549860 1.500372 -2.467008 7.704783 -3.218155 20.209427 0.761212 0.402652 2.102734 -9.444715 -0.225346 13.296900 3.159294 0.360054 -5.868334 -1.568917 -4.294238 -25.340076 0.000000 0.000000 0.000000 95.114059 -1.499109 6.623684 52.619717 -38.901726 10.839830 0.610310 7.920064 36.699596 -1.844395 24.831388 -10.540170 9.426651 -1.752110 40.422478 0.000021 -0.000000 -23.082949 -0.000007 0.000050 -16.036816 0.000009 0.000002 -0.000026 10.658644 16.015291 -13.267015 9.261635 -0.795839 -2.285320 9.296614 0.147228 -2.216767 -0.000005 -0.000013 -0.000024 12.793273 6.603412 -14.154165 10.006943 -0.888258 -1.009806 9.866625 0.071298 -0.872037 -0.000000 0.000017 -0.000004 18.441820 -8.517069 -13.568735 11.447609 1.811197 1.530590 11.402420 -0.105827 1.201549 -0.000034 -0.000538 0.000013 23.301041 -24.423447 -14.529925 11.445102 3.488924 4.486905 11.371281 -0.345609 3.834016 -0.001120 -0.000008 0.000013 0.000000 0.000000 0.000000 0.000000 0.000000 0.000000 -97.261635 1.165750 7.108938 -54.392139 41.971737 3.611609 -3.379811 -14.803109 44.830746 -4.955581 -12.179223 -15.179128 -10.422585 1.811180 40.014736 -0.000012 0.000034 -25.328224 0.000006 -0.000027 -17.592293 -0.001751 -0.000015 -0.000393 -17.915844 16.078613 -8.597626 -10.560456 -0.728337 2.750570 -10.541447 0.203247 2.593708 0.000015 -0.000283 0.000004 -16.678349 6.661806 -10.462399 -10.940712 -0.867832 1.163677 -10.938211 0.088135 1.000303 0.000483 -0.000064 -0.000068 -15.108332 -8.491348 -12.016603 -11.389567 1.802625 -1.614941 -11.338217 -0.106975 -1.272629 0.001529 -0.000009 -0.000000 -11.096031 -24.182556 -16.274647 -10.861512 3.417911 -4.648254 -10.779204 -0.332963 -3.974551 -0.001213 -0.000010 -0.000053 0.000000 0.000000 0.000000 0.000000 0.000000 0.000000 3.395218 -0.850073 18.102161 -0.137507 -0.477843 13.152727 -5.945694 -0.798096 13.126067 0.087459 -0.252196 -26.189072 0.000000 0.000000 0.000000 0.000000 0.000000 0.000000 0.000000 0.000000 0.000000 13.549435 6.533725 21.249271 0.333013 1.171672 17.378738 -6.631259 17.708244 8.133061 1.356125 0.792253 -25.040262 0.000000 0.000000 0.000000 0.000000 0.000000 0.000000 0.000000 0.000000 0.000000 
-3.605159 86.143585 8.765987 -4.639810 -23.853117 -16.203501 2.234778 -0.256672 8.207539 -5.539707 1.491982 -2.449950 7.722932 -3.247340 20.201420 0.772386 0.394675 2.118543 -9.457014 -0.204869 13.287103 3.160568 0.380720 -5.860098 -1.581440 -4.302911 -25.338116 0.000000 0.000000 0.000000 95.132172 -1.504366 6.641252 52.536316 -38.840641 10.910727 0.602661 7.962292 36.667015 -1.826733 24.837490 -10.508010 9.424584 -1.750760 40.425610 0.000021 -0.000000 -23.076817 -0.000007 0.000049 -16.036251 0.000009 0.000002 -0.000026 10.649983 16.021328 -13.299884 9.289288 -0.791400 -2.293499 9.325658 0.151446 -2.224397 -0.000005 -0.000013 -0.000024 12.783148 6.606418 -14.182468 10.036385 -0.886673 -1.012958 9.897231 0.072680 -0.874648 -0.000000 0.000017 -0.000005 18.438999 -8.521877 -13.581307 11.479215 1.808446 1.535025 11.435763 -0.107873 1.204823 -0.000034 -0.000573 0.000013 23.322813 -24.430140 -14.522469 11.480016 3.479995 4.500246 11.410213 -0.353096 3.844810 -0.001125 -0.000008 0.000013 0.000000 0.000000 0.000000 0.000000 0.000000 0.000000 -97.274742 1.168361 7.120129 -54.420177 41.891422 3.609251 -3.370517 -14.773021 44.812328 -4.953238 -12.036454 -15.169275 -10.429914 1.812041 40.010796 -0.000012 0.000035 -25.348053 0.000008 -0.000027 -17.606335 -0.001794 -0.000015 -0.000378 -17.936186 16.079128 -8.592339 -10.581321 -0.725980 2.752818 -10.565660 0.205380 2.596661 0.000014 -0.000274 0.000003 -16.694126 6.661921 -10.460887 -10.954752 -0.866879 1.164654 -10.953636 0.088741 1.001237 0.000488 -0.000063 -0.000067 -15.105845 -8.491911 -12.012011 -11.389478 1.801246 -1.616229 -11.339062 -0.108002 -1.273421 0.001540 -0.000009 -0.000000 -11.093421 -24.183592 -16.251156 -10.857293 3.414374 -4.647534 -10.774169 -0.335361 -3.975044 -0.001217 -0.000009 -0.000052 0.000000 0.000000 0.000000 0.000000 0.000000 0.000000 3.489025 -0.835175 18.038198 -0.136507 -0.471326 13.161929 -6.021945 -0.796715 13.157882 0.093873 -0.253587 -26.193665 0.000000 0.000000 0.000000 0.000000 0.000000 0.000000 0.000000 0.000000 0.000000 13.626071 6.527030 21.137690 0.335211 1.172801 17.496567 -6.715677 17.710541 8.137546 1.353533 0.792469 -25.047752 0.000000 0.000000 0.000000 0.000000 0.000000 0.000000 0.000000 0.000000 0.000000 
-3.670135 86.137718 8.725280 -4.665563 -23.928762 -16.145283 2.255436 -0.263808 8.191177 -5.530919 1.484023 -2.433138 7.742672 -3.274906 20.194408 0.782635 0.387898 2.136460 -9.473535 -0.184835 13.277101 3.160589 0.398561 -5.851599 -1.593564 -4.311068 -25.336218 0.000000 0.000000 0.000000 95.153923 -1.511435 6.658362 52.440659 -38.780865 10.988746 0.594764 7.997330 36.622593 -1.801227 24.826044 -10.489814 9.423938 -1.749807 40.427387 0.000022 0.000000 -23.076284 -0.000007 0.000049 -16.039518 0.000009 0.000002 -0.000026 10.661783 16.024303 -13.332663 9.322262 -0.787020 -2.302588 9.359788 0.155581 -2.232770 -0.000005 -0.000013 -0.000024 12.793379 6.608262 -14.208780 10.070499 -0.885086 -1.016359 9.932281 0.074042 -0.877406 -0.000000 0.000016 -0.000005 18.453665 -8.525251 -13.590129 11.514271 1.805681 1.539432 11.472445 -0.109858 1.208121 -0.000034 -0.000602 0.000013 23.355083 -24.433712 -14.511033 11.515432 3.471338 4.512980 11.449822 -0.360080 3.855174 -0.001131 -0.000008 0.000013 0.000000 0.000000 0.000000 0.000000 0.000000 0.000000 -97.293221 1.173211 7.129055 -54.449009 41.805382 3.606430 -3.361760 -14.753016 44.795887 -4.938694 -11.896085 -15.171977 -10.435084 1.812973 40.007580 -0.000012 0.000035 -25.361816 0.000010 -0.000027 -17.616632 -0.001831 -0.000015 -0.000356 -17.950373 16.077248 -8.593409 -10.594008 -0.723991 2.753617 -10.581695 0.207100 2.598324 0.000014 -0.000265 0.000003 -16.705669 6.661059 -10.464175 -10.960904 -0.866032 1.165016 -10.961642 0.089228 1.001679 0.000498 -0.000063 -0.000066 -15.101618 -8.491428 -12.009330 -11.383431 1.800020 -1.616763 -11.334149 -0.108843 -1.273707 0.001552 -0.000009 -0.000000 -11.091613 -24.182528 -16.228506 -10.849253 3.411369 -4.644893 -10.765461 -0.337203 -3.974303 -0.001220 -0.000009 -0.000052 0.000000 0.000000 0.000000 0.000000 0.000000 0.000000 3.581881 -0.820194 17.981474 -0.135533 -0.465090 13.164158 -6.098503 -0.793459 13.185951 0.100041 -0.254653 -26.196795 0.000000 0.000000 0.000000 0.000000 0.000000 0.000000 0.000000 0.000000 0.000000 13.705071 6.522253 21.032703 0.337580 1.174822 17.610415 -6.803093 17.710155 8.142512 1.351431 0.792645 -25.053638 0.000000 0.000000 0.000000 0.000000 0.000000 0.000000 0.000000 0.000000 0.000000 
-3.737518 86.132507 8.685451 -4.688673 -24.003757 -16.091476 2.275731 -0.270910 8.174253 -5.522900 1.476639 -2.416541 7.762486 -3.300298 20.187794 0.791996 0.382408 2.156182 -9.493669 -0.164982 13.267893 3.159474 0.414425 -5.842472 -1.605671 -4.318814 -25.333265 0.000000 0.000000 0.000000 95.177322 -1.520032 6.673447 52.338615 -38.717777 11.067625 0.587344 8.020715 36.563881 -1.772889 24.798965 -10.483940 9.424905 -1.749209 40.427841 0.000022 0.000000 -23.081347 -0.000008 0.000049 -16.046574 0.000009 0.000002 -0.000026 10.692191 16.024908 -13.365771 9.360031 -0.782800 -2.312274 9.398266 0.159547 -2.241626 -0.000005 -0.000013 -0.000024 12.821143 6.609200 -14.233746 10.108294 -0.883530 -1.019907 9.970825 0.075361 -0.880240 -0.000000 0.000016 -0.000005 18.481831 -8.527442 -13.596972 11.550900 1.802982 1.543664 11.510695 -0.111745 1.211340 -0.000034 -0.000625 0.000013 23.393024 -24.434891 -14.497955 11.549212 3.463195 4.524687 11.487885 -0.366406 3.864771 -0.001138 -0.000008 0.000012 0.000000 0.000000 0.000000 0.000000 0.000000 0.000000 -97.315407 1.179440 7.137074 -54.479225 41.720203 3.599750 -3.353070 -14.739740 44.782646 -4.915989 -11.767406 -15.184411 -10.438336 1.813877 40.005089 -0.000013 0.000035 -25.370184 0.000011 -0.000027 -17.623459 -0.001863 -0.000015 -0.000330 -17.958698 16.073587 -8.600700 -10.599751 -0.722409 2.752976 -10.590719 0.208394 2.598644 0.000014 -0.000255 0.000003 -16.712126 6.659502 -10.472501 -10.960427 -0.865317 1.164783 -10.963334 0.089593 1.001641 0.000513 -0.000063 -0.000066 -15.093377 -8.490256 -12.009922 -11.372413 1.798979 -1.616588 -11.324453 -0.109490 -1.273517 0.001563 -0.000009 -0.000000 -11.086725 -24.180157 -16.209953 -10.838042 3.408940 -4.640621 -10.754001 -0.338517 -3.972494 -0.001223 -0.000009 -0.000052 0.000000 0.000000 0.000000 0.000000 0.000000 0.000000 3.673320 -0.805354 17.931974 -0.134568 -0.459090 13.160390 -6.175147 -0.786906 13.208651 0.106106 -0.255367 -26.197935 0.000000 0.000000 0.000000 0.000000 0.000000 0.000000 0.000000 0.000000 0.000000 13.785476 6.518309 20.935900 0.340085 1.177662 17.719080 -6.892029 17.708427 8.148208 1.349911 0.792841 -25.058378 0.000000 0.000000 0.000000 0.000000 0.000000 0.000000 0.000000 0.000000 0.000000 
-3.807352 86.128044 8.646670 -4.709027 -24.076321 -16.042868 2.295099 -0.277684 8.157512 -5.515163 1.469859 -2.400185 7.781703 -3.323417 20.181797 0.800911 0.377987 2.177027 -9.515982 -0.145300 13.259214 3.157365 0.429044 -5.833224 -1.617969 -4.326067 -25.328777 0.000000 0.000000 0.000000 95.201111 -1.529877 6.684871 52.238045 -38.645699 11.138123 0.580867 8.032091 36.495667 -1.747265 24.757175 -10.488464 9.427453 -1.748917 40.427113 0.000022 0.000000 -23.091429 -0.000008 0.000049 -16.056957 0.000009 0.000002 -0.000026 10.737517 16.023796 -13.399744 9.401663 -0.778786 -2.322396 9.439979 0.163328 -2.250852 -0.000005 -0.000013 -0.000025 12.862545 6.609501 -14.258252 10.148750 -0.882013 -1.023574 10.011881 0.076632 -0.883133 -0.000000 0.000015 -0.000005 18.519970 -8.528780 -13.603992 11.587921 1.800379 1.547718 11.549325 -0.113539 1.214470 -0.000034 -0.000645 0.000013 23.433311 -24.434599 -14.486099 11.580392 3.455623 4.535477 11.523240 -0.372102 3.873665 -0.001144 -0.000008 0.000012 0.000000 0.000000 0.000000 0.000000 0.000000 0.000000 -97.339272 1.186157 7.146115 -54.511353 41.640610 3.587463 -3.344286 -14.729850 44.772739 -4.886347 -11.658926 -15.204046 -10.440104 1.814719 40.003204 -0.000013 0.000035 -25.374359 0.000011 -0.000027 -17.627420 -0.001890 -0.000014 -0.000303 -17.962559 16.068468 -8.613246 -10.599899 -0.721232 2.751008 -10.593917 0.209285 2.597684 0.000014 -0.000247 0.000003 -16.714146 6.657423 -10.485272 -10.954705 -0.864742 1.164011 -10.959982 0.089843 1.001173 0.000532 -0.000063 -0.000066 -15.081227 -8.488648 -12.014087 -11.357878 1.798129 -1.615826 -11.311405 -0.109958 -1.272926 0.001572 -0.000009 -0.000000 -11.077849 -24.177107 -16.196981 -10.824844 3.407068 -4.635202 -10.741141 -0.339377 -3.969920 -0.001225 -0.000009 -0.000052 0.000000 0.000000 0.000000 0.000000 0.000000 0.000000 3.762966 -0.791303 17.889685 -0.133591 -0.453268 13.151914 -6.251913 -0.776858 13.225059 0.112158 -0.255754 -26.196949 0.000000 0.000000 0.000000 0.000000 0.000000 0.000000 0.000000 0.000000 0.000000 13.866498 6.513552 20.848015 0.342694 1.181228 17.821747 -6.981059 17.705431 8.155007 1.348962 0.793054 -25.062262 0.000000 0.000000 0.000000 0.000000 0.000000 0.000000 0.000000 0.000000 0.000000 
